<svg xmlns="http://www.w3.org/2000/svg" version="1.1" xmlns:xlink="http://www.w3.org/1999/xlink" xmlns:svgjs="http://svgjs.dev/svgjs" width="2000" height="2000" preserveAspectRatio="none" viewBox="0 0 2000 2000" opacity="0.2" >
    <g mask="url(&quot;#SvgjsMask1038&quot;)" fill="none">
        <path d="M1851.15 145.65L1851.15 150.18L1877.15 150.18L1877.15 145.65zM1869.13 147.92 a8.02 8.02 0 1 0 16.04 0 a8.02 8.02 0 1 0 -16.04 0zM1845.43 178.92L1843.7 183.11L1856.7 188.49L1858.43 184.31zM1849.54 186.4 a8.02 8.02 0 1 0 16.04 0 a8.02 8.02 0 1 0 -16.04 0zM1827.42 207.47L1824.21 210.68L1836.91 223.38L1840.12 220.17zM1830.49 221.77 a8.02 8.02 0 1 0 16.04 0 a8.02 8.02 0 1 0 -16.04 0zM1799.85 226.96L1795.66 228.69L1807.33 256.86L1811.52 255.13zM1801.4 255.99 a8.02 8.02 0 1 0 16.04 0 a8.02 8.02 0 1 0 -16.04 0zM1766.92 234.41L1762.39 234.41L1762.39 272.98L1766.92 272.98zM1756.64 272.98 a8.02 8.02 0 1 0 16.04 0 a8.02 8.02 0 1 0 -16.04 0zM1733.65 228.69L1729.47 226.96L1716.47 258.32L1720.66 260.06zM1710.55 259.19 a8.02 8.02 0 1 0 16.04 0 a8.02 8.02 0 1 0 -16.04 0zM1705.1 210.68L1701.9 207.47L1683.35 226.02L1686.55 229.22zM1676.93 227.62 a8.02 8.02 0 1 0 16.04 0 a8.02 8.02 0 1 0 -16.04 0zM1685.62 183.11L1683.88 178.92L1651.29 192.42L1653.02 196.61zM1644.14 194.52 a8.02 8.02 0 1 0 16.04 0 a8.02 8.02 0 1 0 -16.04 0zM1678.17 150.18L1678.17 145.65L1645.3 145.65L1645.3 150.18zM1637.28 147.92 a8.02 8.02 0 1 0 16.04 0 a8.02 8.02 0 1 0 -16.04 0zM1683.88 116.91L1685.62 112.73L1647.89 97.1L1646.15 101.28zM1639 99.19 a8.02 8.02 0 1 0 16.04 0 a8.02 8.02 0 1 0 -16.04 0zM1701.9 88.36L1705.1 85.16L1691.78 71.84L1688.57 75.04zM1682.16 73.44 a8.02 8.02 0 1 0 16.04 0 a8.02 8.02 0 1 0 -16.04 0zM1729.47 68.88L1733.65 67.14L1721.07 36.78L1716.89 38.51zM1710.96 37.64 a8.02 8.02 0 1 0 16.04 0 a8.02 8.02 0 1 0 -16.04 0zM1762.39 61.43L1766.92 61.43L1766.92 50.69L1762.39 50.69zM1756.64 50.69 a8.02 8.02 0 1 0 16.04 0 a8.02 8.02 0 1 0 -16.04 0zM1795.66 67.14L1799.85 68.88L1814.32 33.95L1810.13 32.21zM1804.2 33.08 a8.02 8.02 0 1 0 16.04 0 a8.02 8.02 0 1 0 -16.04 0zM1824.21 85.16L1827.42 88.36L1851.65 64.13L1848.45 60.93zM1842.03 62.53 a8.02 8.02 0 1 0 16.04 0 a8.02 8.02 0 1 0 -16.04 0zM1843.7 112.73L1845.43 116.91L1876.56 104.01L1874.83 99.83zM1867.68 101.92 a8.02 8.02 0 1 0 16.04 0 a8.02 8.02 0 1 0 -16.04 0zM1678.14 147.92 a86.52 86.52 0 1 0 173.04 0 a86.52 86.52 0 1 0 -173.04 0z" fill="rgba(225, 231, 238, 1)"></path>
        <path d="M1758.85 234.24 A85.52 85.52 0 0 1 1692.7 99.87M1692.7 99.87 A173.04 173.04 0 0 0 1758.85 234.24" fill="#a6b8cd" fill-rule="nonzero"></path>
        <path d="M1693.75 121.39 a17.3 17.3 0 1 0 34.6 0 a17.3 17.3 0 1 0 -34.6 0zM1726.52 155.47 a4.33 4.33 0 1 0 8.66 0 a4.33 4.33 0 1 0 -8.66 0zM1765.62 142.81 a17.3 17.3 0 1 0 34.6 0 a17.3 17.3 0 1 0 -34.6 0zM1808.96 170.16 a12.98 12.98 0 1 0 25.96 0 a12.98 12.98 0 1 0 -25.96 0zM1716.51 183.6 a6.92 6.92 0 1 0 13.84 0 a6.92 6.92 0 1 0 -13.84 0zM1792.92 217.75 a7.79 7.79 0 1 0 15.58 0 a7.79 7.79 0 1 0 -15.58 0zM1682.69 173.2 a5.19 5.19 0 1 0 10.38 0 a5.19 5.19 0 1 0 -10.38 0zM1776.43 184.01 a6.06 6.06 0 1 0 12.12 0 a6.06 6.06 0 1 0 -12.12 0zM1807.85 116.65 a5.19 5.19 0 1 0 10.38 0 a5.19 5.19 0 1 0 -10.38 0zM1830.82 134.32 a7.79 7.79 0 1 0 15.58 0 a7.79 7.79 0 1 0 -15.58 0z" fill="#a6b8cd" fill-rule="nonzero"></path>
        <path d="M1429.74 1469.88L1429.74 1475.06L1448.31 1475.06L1448.31 1469.88zM1439.14 1472.47 a9.17 9.17 0 1 0 18.34 0 a9.17 9.17 0 1 0 -18.34 0zM1423.21 1507.91L1421.23 1512.69L1446.31 1523.08L1448.29 1518.3zM1438.13 1520.69 a9.17 9.17 0 1 0 18.34 0 a9.17 9.17 0 1 0 -18.34 0zM1402.62 1540.54L1398.96 1544.2L1408.07 1553.31L1411.73 1549.65zM1400.73 1551.48 a9.17 9.17 0 1 0 18.34 0 a9.17 9.17 0 1 0 -18.34 0zM1371.11 1562.8L1366.33 1564.79L1375.13 1586.03L1379.91 1584.04zM1368.35 1585.03 a9.17 9.17 0 1 0 18.34 0 a9.17 9.17 0 1 0 -18.34 0zM1333.48 1571.32L1328.31 1571.32L1328.31 1614.48L1333.48 1614.48zM1321.73 1614.48 a9.17 9.17 0 1 0 18.34 0 a9.17 9.17 0 1 0 -18.34 0zM1295.46 1564.79L1290.68 1562.8L1285 1576.51L1289.78 1578.49zM1278.22 1577.5 a9.17 9.17 0 1 0 18.34 0 a9.17 9.17 0 1 0 -18.34 0zM1262.83 1544.2L1259.17 1540.54L1247.25 1552.46L1250.91 1556.12zM1239.91 1554.29 a9.17 9.17 0 1 0 18.34 0 a9.17 9.17 0 1 0 -18.34 0zM1240.56 1512.69L1238.58 1507.91L1203.03 1522.63L1205.01 1527.42zM1194.85 1525.03 a9.17 9.17 0 1 0 18.34 0 a9.17 9.17 0 1 0 -18.34 0zM1232.05 1475.06L1232.05 1469.88L1218.4 1469.88L1218.4 1475.06zM1209.23 1472.47 a9.17 9.17 0 1 0 18.34 0 a9.17 9.17 0 1 0 -18.34 0zM1238.58 1437.04L1240.56 1432.25L1205.24 1417.62L1203.26 1422.41zM1195.08 1420.02 a9.17 9.17 0 1 0 18.34 0 a9.17 9.17 0 1 0 -18.34 0zM1259.17 1404.41L1262.83 1400.75L1239.69 1377.61L1236.03 1381.27zM1228.69 1379.44 a9.17 9.17 0 1 0 18.34 0 a9.17 9.17 0 1 0 -18.34 0zM1290.68 1382.14L1295.46 1380.16L1287.64 1361.29L1282.86 1363.27zM1276.08 1362.28 a9.17 9.17 0 1 0 18.34 0 a9.17 9.17 0 1 0 -18.34 0zM1328.31 1373.63L1333.48 1373.63L1333.48 1358.06L1328.31 1358.06zM1321.73 1358.06 a9.17 9.17 0 1 0 18.34 0 a9.17 9.17 0 1 0 -18.34 0zM1366.33 1380.16L1371.11 1382.14L1383.82 1351.47L1379.04 1349.49zM1372.26 1350.48 a9.17 9.17 0 1 0 18.34 0 a9.17 9.17 0 1 0 -18.34 0zM1398.96 1400.75L1402.62 1404.41L1415.22 1391.81L1411.56 1388.15zM1404.22 1389.98 a9.17 9.17 0 1 0 18.34 0 a9.17 9.17 0 1 0 -18.34 0zM1421.23 1432.25L1423.21 1437.04L1450.12 1425.89L1448.14 1421.11zM1439.96 1423.5 a9.17 9.17 0 1 0 18.34 0 a9.17 9.17 0 1 0 -18.34 0zM1232.02 1472.47 a98.88 98.88 0 1 0 197.76 0 a98.88 98.88 0 1 0 -197.76 0z" fill="rgba(225, 231, 238, 1)"></path>
        <path d="M1407.41 1409.84 A97.88 97.88 0 0 1 1347.08 1570.02M1347.08 1570.02 A197.76 197.76 0 0 0 1407.41 1409.84" fill="#a6b8cd" fill-rule="nonzero"></path>
        <path d="M1349.81 1528.45 a19.78 19.78 0 1 0 39.56 0 a19.78 19.78 0 1 0 -39.56 0zM1334.2 1453.27 a19.78 19.78 0 1 0 39.56 0 a19.78 19.78 0 1 0 -39.56 0zM1240.24 1436.93 a14.83 14.83 0 1 0 29.66 0 a14.83 14.83 0 1 0 -29.66 0zM1321.59 1398.32 a16.81 16.81 0 1 0 33.62 0 a16.81 16.81 0 1 0 -33.62 0zM1272.54 1404.23 a3.96 3.96 0 1 0 7.92 0 a3.96 3.96 0 1 0 -7.92 0zM1305.39 1556.91 a12.85 12.85 0 1 0 25.7 0 a12.85 12.85 0 1 0 -25.7 0zM1391.72 1419.26 a9.89 9.89 0 1 0 19.78 0 a9.89 9.89 0 1 0 -19.78 0zM1285.16 1458.44 a12.85 12.85 0 1 0 25.7 0 a12.85 12.85 0 1 0 -25.7 0zM1282.55 1514.21 a14.83 14.83 0 1 0 29.66 0 a14.83 14.83 0 1 0 -29.66 0zM1235.13 1493.79 a8.9 8.9 0 1 0 17.8 0 a8.9 8.9 0 1 0 -17.8 0z" fill="#a6b8cd" fill-rule="nonzero"></path>
        <path d="M737.21 671.22L737.21 676.4L778.53 676.4L778.53 671.22zM769.36 673.81 a9.17 9.17 0 1 0 18.34 0 a9.17 9.17 0 1 0 -18.34 0zM730.67 709.25L728.69 714.03L750.93 723.24L752.91 718.46zM742.75 720.85 a9.17 9.17 0 1 0 18.34 0 a9.17 9.17 0 1 0 -18.34 0zM710.08 741.88L706.42 745.54L717.16 756.28L720.83 752.62zM709.83 754.45 a9.17 9.17 0 1 0 18.34 0 a9.17 9.17 0 1 0 -18.34 0zM678.58 764.14L673.79 766.12L690.27 805.89L695.05 803.91zM683.49 804.9 a9.17 9.17 0 1 0 18.34 0 a9.17 9.17 0 1 0 -18.34 0zM640.95 772.66L635.77 772.66L635.77 808.47L640.95 808.47zM629.19 808.47 a9.17 9.17 0 1 0 18.34 0 a9.17 9.17 0 1 0 -18.34 0zM602.92 766.12L598.14 764.14L583.42 799.68L588.21 801.66zM576.64 800.67 a9.17 9.17 0 1 0 18.34 0 a9.17 9.17 0 1 0 -18.34 0zM570.29 745.54L566.63 741.88L550.82 757.69L554.48 761.35zM543.48 759.52 a9.17 9.17 0 1 0 18.34 0 a9.17 9.17 0 1 0 -18.34 0zM548.03 714.03L546.05 709.25L530.08 715.86L532.06 720.64zM521.9 718.25 a9.17 9.17 0 1 0 18.34 0 a9.17 9.17 0 1 0 -18.34 0zM539.51 676.4L539.51 671.22L520.38 671.22L520.38 676.4zM511.21 673.81 a9.17 9.17 0 1 0 18.34 0 a9.17 9.17 0 1 0 -18.34 0zM546.05 638.38L548.03 633.59L526.15 624.53L524.17 629.31zM515.99 626.92 a9.17 9.17 0 1 0 18.34 0 a9.17 9.17 0 1 0 -18.34 0zM566.63 605.75L570.29 602.09L554.75 586.54L551.09 590.2zM543.75 588.37 a9.17 9.17 0 1 0 18.34 0 a9.17 9.17 0 1 0 -18.34 0zM598.14 583.48L602.92 581.5L585.92 540.45L581.14 542.43zM574.36 541.44 a9.17 9.17 0 1 0 18.34 0 a9.17 9.17 0 1 0 -18.34 0zM635.77 574.97L640.95 574.97L640.95 540.41L635.77 540.41zM629.19 540.41 a9.17 9.17 0 1 0 18.34 0 a9.17 9.17 0 1 0 -18.34 0zM673.79 581.5L678.58 583.48L687.9 560.98L683.11 559zM676.33 559.99 a9.17 9.17 0 1 0 18.34 0 a9.17 9.17 0 1 0 -18.34 0zM706.42 602.09L710.08 605.75L735.63 580.21L731.96 576.55zM724.62 578.38 a9.17 9.17 0 1 0 18.34 0 a9.17 9.17 0 1 0 -18.34 0zM728.69 633.59L730.67 638.38L756.64 627.62L754.66 622.84zM746.48 625.23 a9.17 9.17 0 1 0 18.34 0 a9.17 9.17 0 1 0 -18.34 0zM539.48 673.81 a98.88 98.88 0 1 0 197.76 0 a98.88 98.88 0 1 0 -197.76 0z" fill="rgba(225, 231, 238, 1)"></path>
        <path d="M640.31 772.67 A97.88 97.88 0 0 1 551.67 626.25M551.67 626.25 A197.76 197.76 0 0 0 640.31 772.67" fill="#a6b8cd" fill-rule="nonzero"></path>
        <path d="M585.89 603.57 a19.78 19.78 0 1 0 39.56 0 a19.78 19.78 0 1 0 -39.56 0zM658.62 760.9 a6.92 6.92 0 1 0 13.84 0 a6.92 6.92 0 1 0 -13.84 0zM674.7 727.22 a12.85 12.85 0 1 0 25.7 0 a12.85 12.85 0 1 0 -25.7 0zM590.76 674.44 a19.78 19.78 0 1 0 39.56 0 a19.78 19.78 0 1 0 -39.56 0zM644.29 616.33 a4.94 4.94 0 1 0 9.88 0 a4.94 4.94 0 1 0 -9.88 0zM649.2 661.38 a5.93 5.93 0 1 0 11.86 0 a5.93 5.93 0 1 0 -11.86 0zM681.16 665.31 a3.96 3.96 0 1 0 7.92 0 a3.96 3.96 0 1 0 -7.92 0zM540.56 669.71 a6.92 6.92 0 1 0 13.84 0 a6.92 6.92 0 1 0 -13.84 0zM662.28 586.16 a5.93 5.93 0 1 0 11.86 0 a5.93 5.93 0 1 0 -11.86 0zM719.1 715.67 a3.96 3.96 0 1 0 7.92 0 a3.96 3.96 0 1 0 -7.92 0z" fill="#a6b8cd" fill-rule="nonzero"></path>
        <path d="M457.42 1645.69L457.42 1650.86L487.48 1650.86L487.48 1645.69zM478.31 1648.27 a9.17 9.17 0 1 0 18.34 0 a9.17 9.17 0 1 0 -18.34 0zM450.88 1683.71L448.9 1688.49L489.87 1705.46L491.85 1700.68zM481.69 1703.07 a9.17 9.17 0 1 0 18.34 0 a9.17 9.17 0 1 0 -18.34 0zM430.29 1716.34L426.63 1720L454.76 1748.12L458.42 1744.46zM447.42 1746.29 a9.17 9.17 0 1 0 18.34 0 a9.17 9.17 0 1 0 -18.34 0zM398.79 1738.61L394.01 1740.59L400.48 1756.21L405.26 1754.23zM393.7 1755.22 a9.17 9.17 0 1 0 18.34 0 a9.17 9.17 0 1 0 -18.34 0zM361.16 1747.12L355.98 1747.12L355.98 1771.41L361.16 1771.41zM349.4 1771.41 a9.17 9.17 0 1 0 18.34 0 a9.17 9.17 0 1 0 -18.34 0zM323.13 1740.59L318.35 1738.61L307.07 1765.85L311.85 1767.83zM300.29 1766.84 a9.17 9.17 0 1 0 18.34 0 a9.17 9.17 0 1 0 -18.34 0zM290.51 1720L286.84 1716.34L253.31 1749.88L256.97 1753.54zM245.97 1751.71 a9.17 9.17 0 1 0 18.34 0 a9.17 9.17 0 1 0 -18.34 0zM268.24 1688.49L266.26 1683.71L224.34 1701.07L226.32 1705.85zM216.16 1703.46 a9.17 9.17 0 1 0 18.34 0 a9.17 9.17 0 1 0 -18.34 0zM259.72 1650.86L259.72 1645.69L230.44 1645.69L230.44 1650.86zM221.27 1648.27 a9.17 9.17 0 1 0 18.34 0 a9.17 9.17 0 1 0 -18.34 0zM266.26 1612.84L268.24 1608.06L247.3 1599.38L245.32 1604.17zM237.14 1601.78 a9.17 9.17 0 1 0 18.34 0 a9.17 9.17 0 1 0 -18.34 0zM286.84 1580.21L290.51 1576.55L258.46 1544.5L254.8 1548.16zM247.46 1546.33 a9.17 9.17 0 1 0 18.34 0 a9.17 9.17 0 1 0 -18.34 0zM318.35 1557.94L323.13 1555.96L311.17 1527.07L306.39 1529.05zM299.61 1528.06 a9.17 9.17 0 1 0 18.34 0 a9.17 9.17 0 1 0 -18.34 0zM355.98 1549.43L361.16 1549.43L361.16 1529.04L355.98 1529.04zM349.4 1529.04 a9.17 9.17 0 1 0 18.34 0 a9.17 9.17 0 1 0 -18.34 0zM394.01 1555.96L398.79 1557.94L405.8 1541.01L401.02 1539.03zM394.24 1540.02 a9.17 9.17 0 1 0 18.34 0 a9.17 9.17 0 1 0 -18.34 0zM426.63 1576.55L430.29 1580.21L462.67 1547.83L459.01 1544.17zM451.67 1546 a9.17 9.17 0 1 0 18.34 0 a9.17 9.17 0 1 0 -18.34 0zM448.9 1608.06L450.88 1612.84L494.26 1594.87L492.28 1590.09zM484.1 1592.48 a9.17 9.17 0 1 0 18.34 0 a9.17 9.17 0 1 0 -18.34 0zM259.69 1648.27 a98.88 98.88 0 1 0 197.76 0 a98.88 98.88 0 1 0 -197.76 0z" fill="rgba(225, 231, 238, 1)"></path>
        <path d="M358.29 1549.39 A97.88 97.88 0 0 1 444.44 1697.3M444.44 1697.3 A197.76 197.76 0 0 0 358.29 1549.39" fill="#a6b8cd" fill-rule="nonzero"></path>
        <path d="M422.06 1592.35 a7.91 7.91 0 1 0 15.82 0 a7.91 7.91 0 1 0 -15.82 0zM358.86 1616.38 a19.78 19.78 0 1 0 39.56 0 a19.78 19.78 0 1 0 -39.56 0zM379.24 1693.6 a19.78 19.78 0 1 0 39.56 0 a19.78 19.78 0 1 0 -39.56 0zM265.14 1648.46 a19.78 19.78 0 1 0 39.56 0 a19.78 19.78 0 1 0 -39.56 0zM319.68 1730.1 a11.87 11.87 0 1 0 23.74 0 a11.87 11.87 0 1 0 -23.74 0zM419.38 1645.63 a18.79 18.79 0 1 0 37.58 0 a18.79 18.79 0 1 0 -37.58 0zM300.09 1691.82 a10.88 10.88 0 1 0 21.76 0 a10.88 10.88 0 1 0 -21.76 0zM333.04 1662.26 a14.83 14.83 0 1 0 29.66 0 a14.83 14.83 0 1 0 -29.66 0zM303.31 1571.61 a8.9 8.9 0 1 0 17.8 0 a8.9 8.9 0 1 0 -17.8 0zM369.27 1564.44 a11.87 11.87 0 1 0 23.74 0 a11.87 11.87 0 1 0 -23.74 0z" fill="#a6b8cd" fill-rule="nonzero"></path>
        <path d="M1944.19 1161.61L1944.19 1166.14L1957.84 1166.14L1957.84 1161.61zM1949.82 1163.88 a8.02 8.02 0 1 0 16.04 0 a8.02 8.02 0 1 0 -16.04 0zM1938.47 1194.88L1936.74 1199.07L1964.84 1210.71L1966.57 1206.53zM1957.69 1208.62 a8.02 8.02 0 1 0 16.04 0 a8.02 8.02 0 1 0 -16.04 0zM1920.46 1223.43L1917.25 1226.64L1936.82 1246.2L1940.02 1243zM1930.4 1244.6 a8.02 8.02 0 1 0 16.04 0 a8.02 8.02 0 1 0 -16.04 0zM1892.89 1242.92L1888.7 1244.65L1895.77 1261.71L1899.95 1259.97zM1889.84 1260.84 a8.02 8.02 0 1 0 16.04 0 a8.02 8.02 0 1 0 -16.04 0zM1859.96 1250.37L1855.43 1250.37L1855.43 1290.33L1859.96 1290.33zM1849.68 1290.33 a8.02 8.02 0 1 0 16.04 0 a8.02 8.02 0 1 0 -16.04 0zM1826.69 1244.65L1822.51 1242.92L1812.68 1266.63L1816.87 1268.37zM1806.75 1267.5 a8.02 8.02 0 1 0 16.04 0 a8.02 8.02 0 1 0 -16.04 0zM1798.14 1226.64L1794.94 1223.43L1769.31 1249.06L1772.51 1252.26zM1762.89 1250.66 a8.02 8.02 0 1 0 16.04 0 a8.02 8.02 0 1 0 -16.04 0zM1778.66 1199.07L1776.92 1194.88L1753.53 1204.57L1755.26 1208.76zM1746.38 1206.67 a8.02 8.02 0 1 0 16.04 0 a8.02 8.02 0 1 0 -16.04 0zM1771.21 1166.14L1771.21 1161.61L1753.56 1161.61L1753.56 1166.14zM1745.54 1163.88 a8.02 8.02 0 1 0 16.04 0 a8.02 8.02 0 1 0 -16.04 0zM1776.92 1132.87L1778.66 1128.69L1741.4 1113.25L1739.66 1117.44zM1732.51 1115.35 a8.02 8.02 0 1 0 16.04 0 a8.02 8.02 0 1 0 -16.04 0zM1794.94 1104.32L1798.14 1101.12L1771.21 1074.19L1768 1077.39zM1761.58 1075.79 a8.02 8.02 0 1 0 16.04 0 a8.02 8.02 0 1 0 -16.04 0zM1822.51 1084.84L1826.69 1083.11L1814.72 1054.22L1810.54 1055.95zM1804.61 1055.08 a8.02 8.02 0 1 0 16.04 0 a8.02 8.02 0 1 0 -16.04 0zM1855.43 1077.39L1859.96 1077.39L1859.96 1055.58L1855.43 1055.58zM1849.68 1055.58 a8.02 8.02 0 1 0 16.04 0 a8.02 8.02 0 1 0 -16.04 0zM1888.7 1083.11L1892.89 1084.84L1897.48 1073.76L1893.29 1072.03zM1887.36 1072.89 a8.02 8.02 0 1 0 16.04 0 a8.02 8.02 0 1 0 -16.04 0zM1917.25 1101.12L1920.46 1104.32L1945.18 1079.6L1941.97 1076.4zM1935.55 1078 a8.02 8.02 0 1 0 16.04 0 a8.02 8.02 0 1 0 -16.04 0zM1936.74 1128.69L1938.47 1132.87L1976.81 1116.99L1975.08 1112.81zM1967.92 1114.9 a8.02 8.02 0 1 0 16.04 0 a8.02 8.02 0 1 0 -16.04 0zM1771.18 1163.88 a86.52 86.52 0 1 0 173.04 0 a86.52 86.52 0 1 0 -173.04 0z" fill="rgba(225, 231, 238, 1)"></path>
        <path d="M1934.47 1123.98 A85.52 85.52 0 0 1 1854.04 1250.32M1854.04 1250.32 A173.04 173.04 0 0 0 1934.47 1123.98" fill="#a6b8cd" fill-rule="nonzero"></path>
        <path d="M1894 1103.8 a10.38 10.38 0 1 0 20.76 0 a10.38 10.38 0 1 0 -20.76 0zM1907.11 1180.44 a17.3 17.3 0 1 0 34.6 0 a17.3 17.3 0 1 0 -34.6 0zM1918.37 1137.33 a7.79 7.79 0 1 0 15.58 0 a7.79 7.79 0 1 0 -15.58 0zM1813.24 1195.06 a17.3 17.3 0 1 0 34.6 0 a17.3 17.3 0 1 0 -34.6 0zM1860.4 1218.3 a15.57 15.57 0 1 0 31.14 0 a15.57 15.57 0 1 0 -31.14 0zM1881.64 1172.46 a4.33 4.33 0 1 0 8.66 0 a4.33 4.33 0 1 0 -8.66 0zM1774.16 1145.8 a13.84 13.84 0 1 0 27.68 0 a13.84 13.84 0 1 0 -27.68 0zM1826.72 1120.77 a17.3 17.3 0 1 0 34.6 0 a17.3 17.3 0 1 0 -34.6 0zM1879.48 1133.47 a6.92 6.92 0 1 0 13.84 0 a6.92 6.92 0 1 0 -13.84 0zM1830.18 1233.12 a3.46 3.46 0 1 0 6.92 0 a3.46 3.46 0 1 0 -6.92 0z" fill="#a6b8cd" fill-rule="nonzero"></path>
        <path d="M346.01 1173.99L346.01 1179.16L384.55 1179.16L384.55 1173.99zM375.38 1176.58 a9.17 9.17 0 1 0 18.34 0 a9.17 9.17 0 1 0 -18.34 0zM339.48 1212.01L337.49 1216.79L355.2 1224.13L357.18 1219.34zM347.02 1221.73 a9.17 9.17 0 1 0 18.34 0 a9.17 9.17 0 1 0 -18.34 0zM318.89 1244.64L315.23 1248.3L328.54 1261.61L332.2 1257.95zM321.2 1259.78 a9.17 9.17 0 1 0 18.34 0 a9.17 9.17 0 1 0 -18.34 0zM287.38 1266.91L282.6 1268.89L289.08 1284.54L293.86 1282.56zM282.3 1283.55 a9.17 9.17 0 1 0 18.34 0 a9.17 9.17 0 1 0 -18.34 0zM249.75 1275.42L244.57 1275.42L244.57 1314.53L249.75 1314.53zM237.99 1314.53 a9.17 9.17 0 1 0 18.34 0 a9.17 9.17 0 1 0 -18.34 0zM211.73 1268.89L206.95 1266.91L191.35 1304.56L196.13 1306.55zM184.57 1305.55 a9.17 9.17 0 1 0 18.34 0 a9.17 9.17 0 1 0 -18.34 0zM179.1 1248.3L175.44 1244.64L144.25 1275.83L147.91 1279.49zM136.91 1277.66 a9.17 9.17 0 1 0 18.34 0 a9.17 9.17 0 1 0 -18.34 0zM156.83 1216.79L154.85 1212.01L109.71 1230.71L111.69 1235.49zM101.53 1233.1 a9.17 9.17 0 1 0 18.34 0 a9.17 9.17 0 1 0 -18.34 0zM148.32 1179.16L148.32 1173.99L110.81 1173.99L110.81 1179.16zM101.64 1176.58 a9.17 9.17 0 1 0 18.34 0 a9.17 9.17 0 1 0 -18.34 0zM154.85 1141.14L156.83 1136.36L120.17 1121.17L118.19 1125.96zM110.01 1123.56 a9.17 9.17 0 1 0 18.34 0 a9.17 9.17 0 1 0 -18.34 0zM175.44 1108.51L179.1 1104.85L158.86 1084.61L155.2 1088.27zM147.86 1086.44 a9.17 9.17 0 1 0 18.34 0 a9.17 9.17 0 1 0 -18.34 0zM206.95 1086.24L211.73 1084.26L197.38 1049.62L192.59 1051.6zM185.82 1050.61 a9.17 9.17 0 1 0 18.34 0 a9.17 9.17 0 1 0 -18.34 0zM244.57 1077.73L249.75 1077.73L249.75 1049.57L244.57 1049.57zM237.99 1049.57 a9.17 9.17 0 1 0 18.34 0 a9.17 9.17 0 1 0 -18.34 0zM282.6 1084.26L287.38 1086.24L303.35 1047.7L298.56 1045.72zM291.79 1046.71 a9.17 9.17 0 1 0 18.34 0 a9.17 9.17 0 1 0 -18.34 0zM315.23 1104.85L318.89 1108.51L332.26 1095.14L328.6 1091.48zM321.26 1093.31 a9.17 9.17 0 1 0 18.34 0 a9.17 9.17 0 1 0 -18.34 0zM337.49 1136.36L339.48 1141.14L383.02 1123.1L381.04 1118.32zM372.86 1120.71 a9.17 9.17 0 1 0 18.34 0 a9.17 9.17 0 1 0 -18.34 0zM148.28 1176.58 a98.88 98.88 0 1 0 197.76 0 a98.88 98.88 0 1 0 -197.76 0z" fill="rgba(225, 231, 238, 1)"></path>
        <path d="M272.89 1272.05 A97.88 97.88 0 0 1 151.56 1151.32M151.56 1151.32 A197.76 197.76 0 0 0 272.89 1272.05" fill="#a6b8cd" fill-rule="nonzero"></path>
        <path d="M191 1202.98 a19.78 19.78 0 1 0 39.56 0 a19.78 19.78 0 1 0 -39.56 0zM249.89 1193.68 a5.93 5.93 0 1 0 11.86 0 a5.93 5.93 0 1 0 -11.86 0zM154.99 1143.87 a5.93 5.93 0 1 0 11.86 0 a5.93 5.93 0 1 0 -11.86 0zM224.84 1150.56 a18.79 18.79 0 1 0 37.58 0 a18.79 18.79 0 1 0 -37.58 0zM186.08 1251.64 a3.96 3.96 0 1 0 7.92 0 a3.96 3.96 0 1 0 -7.92 0zM279.37 1207.99 a7.91 7.91 0 1 0 15.82 0 a7.91 7.91 0 1 0 -15.82 0zM230.3 1093.37 a14.83 14.83 0 1 0 29.66 0 a14.83 14.83 0 1 0 -29.66 0zM312.95 1189.27 a15.82 15.82 0 1 0 31.64 0 a15.82 15.82 0 1 0 -31.64 0zM280.16 1164.35 a7.91 7.91 0 1 0 15.82 0 a7.91 7.91 0 1 0 -15.82 0zM296.48 1254.98 a3.96 3.96 0 1 0 7.92 0 a3.96 3.96 0 1 0 -7.92 0z" fill="#a6b8cd" fill-rule="nonzero"></path>
        <path d="M1844.33 550.9L1844.33 556.08L1888.85 556.08L1888.85 550.9zM1879.68 553.49 a9.17 9.17 0 1 0 18.34 0 a9.17 9.17 0 1 0 -18.34 0zM1837.8 588.92L1835.82 593.71L1875.32 610.07L1877.31 605.29zM1867.14 607.68 a9.17 9.17 0 1 0 18.34 0 a9.17 9.17 0 1 0 -18.34 0zM1817.21 621.55L1813.55 625.21L1840.75 652.41L1844.41 648.75zM1833.41 650.58 a9.17 9.17 0 1 0 18.34 0 a9.17 9.17 0 1 0 -18.34 0zM1785.71 643.82L1780.92 645.8L1790.4 668.68L1795.19 666.7zM1783.62 667.69 a9.17 9.17 0 1 0 18.34 0 a9.17 9.17 0 1 0 -18.34 0zM1748.08 652.33L1742.9 652.33L1742.9 666.07L1748.08 666.07zM1736.32 666.07 a9.17 9.17 0 1 0 18.34 0 a9.17 9.17 0 1 0 -18.34 0zM1710.05 645.8L1705.27 643.82L1698.66 659.76L1703.45 661.75zM1691.89 660.76 a9.17 9.17 0 1 0 18.34 0 a9.17 9.17 0 1 0 -18.34 0zM1677.42 625.21L1673.76 621.55L1659.47 635.85L1663.13 639.51zM1652.13 637.68 a9.17 9.17 0 1 0 18.34 0 a9.17 9.17 0 1 0 -18.34 0zM1655.16 593.71L1653.18 588.92L1622.25 601.73L1624.23 606.51zM1614.07 604.12 a9.17 9.17 0 1 0 18.34 0 a9.17 9.17 0 1 0 -18.34 0zM1646.64 556.08L1646.64 550.9L1626.87 550.9L1626.87 556.08zM1617.7 553.49 a9.17 9.17 0 1 0 18.34 0 a9.17 9.17 0 1 0 -18.34 0zM1653.18 518.05L1655.16 513.27L1628.36 502.17L1626.38 506.95zM1618.2 504.56 a9.17 9.17 0 1 0 18.34 0 a9.17 9.17 0 1 0 -18.34 0zM1673.76 485.42L1677.42 481.76L1643.33 447.67L1639.67 451.33zM1632.33 449.5 a9.17 9.17 0 1 0 18.34 0 a9.17 9.17 0 1 0 -18.34 0zM1705.27 463.16L1710.05 461.17L1693.41 421L1688.63 422.99zM1681.85 421.99 a9.17 9.17 0 1 0 18.34 0 a9.17 9.17 0 1 0 -18.34 0zM1742.9 454.64L1748.08 454.64L1748.08 430.84L1742.9 430.84zM1736.32 430.84 a9.17 9.17 0 1 0 18.34 0 a9.17 9.17 0 1 0 -18.34 0zM1780.92 461.17L1785.71 463.16L1791.64 448.83L1786.86 446.85zM1780.08 447.84 a9.17 9.17 0 1 0 18.34 0 a9.17 9.17 0 1 0 -18.34 0zM1813.55 481.76L1817.21 485.42L1827.13 475.51L1823.47 471.85zM1816.13 473.68 a9.17 9.17 0 1 0 18.34 0 a9.17 9.17 0 1 0 -18.34 0zM1835.82 513.27L1837.8 518.05L1866.74 506.07L1864.76 501.28zM1856.58 503.67 a9.17 9.17 0 1 0 18.34 0 a9.17 9.17 0 1 0 -18.34 0zM1646.61 553.49 a98.88 98.88 0 1 0 197.76 0 a98.88 98.88 0 1 0 -197.76 0z" fill="rgba(225, 231, 238, 1)"></path>
        <path d="M1669.33 616.56 A97.88 97.88 0 0 1 1728.74 456.04M1728.74 456.04 A197.76 197.76 0 0 0 1669.33 616.56" fill="#a6b8cd" fill-rule="nonzero"></path>
        <path d="M1675.58 600.44 a19.78 19.78 0 1 0 39.56 0 a19.78 19.78 0 1 0 -39.56 0zM1743.99 592.78 a19.78 19.78 0 1 0 39.56 0 a19.78 19.78 0 1 0 -39.56 0zM1720.03 474.95 a19.78 19.78 0 1 0 39.56 0 a19.78 19.78 0 1 0 -39.56 0zM1698.87 526.85 a16.81 16.81 0 1 0 33.62 0 a16.81 16.81 0 1 0 -33.62 0zM1798.18 614.53 a6.92 6.92 0 1 0 13.84 0 a6.92 6.92 0 1 0 -13.84 0zM1834.77 538.03 a3.96 3.96 0 1 0 7.92 0 a3.96 3.96 0 1 0 -7.92 0zM1673.01 560.01 a3.96 3.96 0 1 0 7.92 0 a3.96 3.96 0 1 0 -7.92 0zM1764.83 510.59 a10.88 10.88 0 1 0 21.76 0 a10.88 10.88 0 1 0 -21.76 0zM1804.04 524.52 a5.93 5.93 0 1 0 11.86 0 a5.93 5.93 0 1 0 -11.86 0zM1650.4 529.49 a4.94 4.94 0 1 0 9.88 0 a4.94 4.94 0 1 0 -9.88 0z" fill="#a6b8cd" fill-rule="nonzero"></path>
        <path d="M148.04 149.62L148.04 152.21L157.41 152.21L157.41 149.62zM152.83 150.92 a4.58 4.58 0 1 0 9.16 0 a4.58 4.58 0 1 0 -9.16 0zM144.77 168.64L143.78 171.03L151.88 174.38L152.87 171.99zM147.8 173.19 a4.58 4.58 0 1 0 9.16 0 a4.58 4.58 0 1 0 -9.16 0zM134.47 184.95L132.64 186.78L145.66 199.8L147.49 197.97zM142 198.88 a4.58 4.58 0 1 0 9.16 0 a4.58 4.58 0 1 0 -9.16 0zM118.72 196.08L116.33 197.07L124.44 216.65L126.83 215.66zM121.05 216.16 a4.58 4.58 0 1 0 9.16 0 a4.58 4.58 0 1 0 -9.16 0zM99.91 200.34L97.32 200.34L97.32 222.19L99.91 222.19zM94.03 222.19 a4.58 4.58 0 1 0 9.16 0 a4.58 4.58 0 1 0 -9.16 0zM80.89 197.07L78.5 196.08L70.44 215.55L72.83 216.54zM67.06 216.05 a4.58 4.58 0 1 0 9.16 0 a4.58 4.58 0 1 0 -9.16 0zM64.58 186.78L62.75 184.95L45.55 202.15L47.38 203.98zM41.89 203.06 a4.58 4.58 0 1 0 9.16 0 a4.58 4.58 0 1 0 -9.16 0zM53.45 171.03L52.46 168.64L45.34 171.58L46.33 173.97zM41.26 172.78 a4.58 4.58 0 1 0 9.16 0 a4.58 4.58 0 1 0 -9.16 0zM49.19 152.21L49.19 149.62L40.21 149.62L40.21 152.21zM35.63 150.92 a4.58 4.58 0 1 0 9.16 0 a4.58 4.58 0 1 0 -9.16 0zM52.46 133.2L53.45 130.81L43.27 126.6L42.28 128.99zM38.2 127.79 a4.58 4.58 0 1 0 9.16 0 a4.58 4.58 0 1 0 -9.16 0zM62.75 116.89L64.58 115.06L47.61 98.09L45.78 99.92zM42.11 99 a4.58 4.58 0 1 0 9.16 0 a4.58 4.58 0 1 0 -9.16 0zM78.5 105.75L80.89 104.76L77.14 95.71L74.75 96.7zM71.37 96.2 a4.58 4.58 0 1 0 9.16 0 a4.58 4.58 0 1 0 -9.16 0zM97.32 101.5L99.91 101.5L99.91 84.56L97.32 84.56zM94.03 84.56 a4.58 4.58 0 1 0 9.16 0 a4.58 4.58 0 1 0 -9.16 0zM116.33 104.76L118.72 105.75L122.06 97.7L119.67 96.71zM116.28 97.2 a4.58 4.58 0 1 0 9.16 0 a4.58 4.58 0 1 0 -9.16 0zM132.64 115.06L134.47 116.89L141.6 109.77L139.77 107.94zM136.1 108.85 a4.58 4.58 0 1 0 9.16 0 a4.58 4.58 0 1 0 -9.16 0zM143.78 130.81L144.77 133.2L162.52 125.85L161.53 123.46zM157.44 124.65 a4.58 4.58 0 1 0 9.16 0 a4.58 4.58 0 1 0 -9.16 0zM49.17 150.92 a49.44 49.44 0 1 0 98.88 0 a49.44 49.44 0 1 0 -98.88 0z" fill="rgba(225, 231, 238, 1)"></path>
        <path d="M70.23 191.4 A48.44 48.44 0 0 1 77.65 106.14M77.65 106.14 A98.88 98.88 0 0 0 70.23 191.4" fill="#a6b8cd" fill-rule="nonzero"></path>
        <path d="M68.95 158.17 a9.89 9.89 0 1 0 19.78 0 a9.89 9.89 0 1 0 -19.78 0zM56.44 128.74 a9.39 9.39 0 1 0 18.78 0 a9.39 9.39 0 1 0 -18.78 0zM96.67 147.32 a9.39 9.39 0 1 0 18.78 0 a9.39 9.39 0 1 0 -18.78 0zM123.45 157.14 a5.93 5.93 0 1 0 11.86 0 a5.93 5.93 0 1 0 -11.86 0zM134.07 140.31 a2.47 2.47 0 1 0 4.94 0 a2.47 2.47 0 1 0 -4.94 0zM112.6 180.19 a8.4 8.4 0 1 0 16.8 0 a8.4 8.4 0 1 0 -16.8 0zM64.39 179.11 a3.46 3.46 0 1 0 6.92 0 a3.46 3.46 0 1 0 -6.92 0zM112.48 125.81 a4.94 4.94 0 1 0 9.88 0 a4.94 4.94 0 1 0 -9.88 0zM131.16 118.78 a1.98 1.98 0 1 0 3.96 0 a1.98 1.98 0 1 0 -3.96 0zM92.48 105.99 a4.45 4.45 0 1 0 8.9 0 a4.45 4.45 0 1 0 -8.9 0z" fill="#a6b8cd" fill-rule="nonzero"></path>
        <path d="M1317.21 522.54L1317.21 527.72L1364.31 527.72L1364.31 522.54zM1355.14 525.13 a9.17 9.17 0 1 0 18.34 0 a9.17 9.17 0 1 0 -18.34 0zM1310.67 560.57L1308.69 565.35L1329.04 573.78L1331.03 569zM1320.86 571.39 a9.17 9.17 0 1 0 18.34 0 a9.17 9.17 0 1 0 -18.34 0zM1290.08 593.2L1286.42 596.86L1307.73 618.16L1311.39 614.5zM1300.39 616.33 a9.17 9.17 0 1 0 18.34 0 a9.17 9.17 0 1 0 -18.34 0zM1258.58 615.46L1253.8 617.44L1267.26 649.96L1272.04 647.97zM1260.48 648.97 a9.17 9.17 0 1 0 18.34 0 a9.17 9.17 0 1 0 -18.34 0zM1220.95 623.98L1215.77 623.98L1215.77 653.54L1220.95 653.54zM1209.19 653.54 a9.17 9.17 0 1 0 18.34 0 a9.17 9.17 0 1 0 -18.34 0zM1182.92 617.44L1178.14 615.46L1161.11 656.58L1165.89 658.56zM1154.33 657.57 a9.17 9.17 0 1 0 18.34 0 a9.17 9.17 0 1 0 -18.34 0zM1150.3 596.86L1146.63 593.2L1125.49 614.35L1129.15 618.01zM1118.15 616.18 a9.17 9.17 0 1 0 18.34 0 a9.17 9.17 0 1 0 -18.34 0zM1128.03 565.35L1126.05 560.57L1102.99 570.12L1104.97 574.9zM1094.81 572.51 a9.17 9.17 0 1 0 18.34 0 a9.17 9.17 0 1 0 -18.34 0zM1119.51 527.72L1119.51 522.54L1072.97 522.54L1072.97 527.72zM1063.8 525.13 a9.17 9.17 0 1 0 18.34 0 a9.17 9.17 0 1 0 -18.34 0zM1126.05 489.7L1128.03 484.91L1100.14 473.36L1098.16 478.14zM1089.98 475.75 a9.17 9.17 0 1 0 18.34 0 a9.17 9.17 0 1 0 -18.34 0zM1146.63 457.07L1150.3 453.41L1140 443.11L1136.34 446.77zM1129 444.94 a9.17 9.17 0 1 0 18.34 0 a9.17 9.17 0 1 0 -18.34 0zM1178.14 434.8L1182.92 432.82L1169.79 401.1L1165 403.08zM1158.23 402.09 a9.17 9.17 0 1 0 18.34 0 a9.17 9.17 0 1 0 -18.34 0zM1215.77 426.29L1220.95 426.29L1220.95 396.64L1215.77 396.64zM1209.19 396.64 a9.17 9.17 0 1 0 18.34 0 a9.17 9.17 0 1 0 -18.34 0zM1253.8 432.82L1258.58 434.8L1274.68 395.92L1269.9 393.94zM1263.12 394.93 a9.17 9.17 0 1 0 18.34 0 a9.17 9.17 0 1 0 -18.34 0zM1286.42 453.41L1290.08 457.07L1307.27 439.88L1303.61 436.22zM1296.27 438.05 a9.17 9.17 0 1 0 18.34 0 a9.17 9.17 0 1 0 -18.34 0zM1308.69 484.91L1310.67 489.7L1328.49 482.31L1326.51 477.53zM1318.33 479.92 a9.17 9.17 0 1 0 18.34 0 a9.17 9.17 0 1 0 -18.34 0zM1119.48 525.13 a98.88 98.88 0 1 0 197.76 0 a98.88 98.88 0 1 0 -197.76 0z" fill="rgba(225, 231, 238, 1)"></path>
        <path d="M1168.56 439.71 A97.88 97.88 0 0 1 1317.24 524.51M1317.24 524.51 A197.76 197.76 0 0 0 1168.56 439.71" fill="#a6b8cd" fill-rule="nonzero"></path>
        <path d="M1166.34 591.9 a19.78 19.78 0 1 0 39.56 0 a19.78 19.78 0 1 0 -39.56 0zM1132.31 479.56 a10.88 10.88 0 1 0 21.76 0 a10.88 10.88 0 1 0 -21.76 0zM1186.7 499.88 a19.78 19.78 0 1 0 39.56 0 a19.78 19.78 0 1 0 -39.56 0zM1267.55 599.01 a5.93 5.93 0 1 0 11.86 0 a5.93 5.93 0 1 0 -11.86 0zM1279.07 516.24 a18.79 18.79 0 1 0 37.58 0 a18.79 18.79 0 1 0 -37.58 0zM1222.67 544.1 a13.84 13.84 0 1 0 27.68 0 a13.84 13.84 0 1 0 -27.68 0zM1210.72 440.85 a13.84 13.84 0 1 0 27.68 0 a13.84 13.84 0 1 0 -27.68 0zM1280.08 467.23 a7.91 7.91 0 1 0 15.82 0 a7.91 7.91 0 1 0 -15.82 0zM1182.25 438.01 a3.96 3.96 0 1 0 7.92 0 a3.96 3.96 0 1 0 -7.92 0zM1223.58 605.24 a3.96 3.96 0 1 0 7.92 0 a3.96 3.96 0 1 0 -7.92 0z" fill="#a6b8cd" fill-rule="nonzero"></path>
<!--  -->
        <path d="M964.36 103.44L964.36 106.67L991.46 106.67L991.46 103.44zM985.73 105.05 a5.73 5.73 0 1 0 11.46 0 a5.73 5.73 0 1 0 -11.46 0zM960.28 127.2L959.04 130.19L985.04 140.96L986.27 137.97zM979.93 139.46 a5.73 5.73 0 1 0 11.46 0 a5.73 5.73 0 1 0 -11.46 0zM947.41 147.59L945.12 149.88L956.51 161.27L958.8 158.98zM951.93 160.13 a5.73 5.73 0 1 0 11.46 0 a5.73 5.73 0 1 0 -11.46 0zM927.72 161.51L924.73 162.75L931.21 178.4L934.2 177.16zM926.98 177.78 a5.73 5.73 0 1 0 11.46 0 a5.73 5.73 0 1 0 -11.46 0zM904.2 166.83L900.96 166.83L900.96 179.01L904.2 179.01zM896.85 179.01 a5.73 5.73 0 1 0 11.46 0 a5.73 5.73 0 1 0 -11.46 0zM880.43 162.75L877.45 161.51L866.08 188.95L869.07 190.19zM861.84 189.57 a5.73 5.73 0 1 0 11.46 0 a5.73 5.73 0 1 0 -11.46 0zM860.04 149.88L857.75 147.59L843.73 161.62L846.02 163.9zM839.15 162.76 a5.73 5.73 0 1 0 11.46 0 a5.73 5.73 0 1 0 -11.46 0zM846.12 130.19L844.89 127.2L833.56 131.89L834.8 134.88zM828.45 133.39 a5.73 5.73 0 1 0 11.46 0 a5.73 5.73 0 1 0 -11.46 0zM840.8 106.67L840.8 103.44L819.97 103.44L819.97 106.67zM814.24 105.05 a5.73 5.73 0 1 0 11.46 0 a5.73 5.73 0 1 0 -11.46 0zM844.89 82.91L846.12 79.92L820.82 69.43L819.58 72.42zM814.47 70.93 a5.73 5.73 0 1 0 11.46 0 a5.73 5.73 0 1 0 -11.46 0zM857.75 62.51L860.04 60.22L846.97 47.15L844.68 49.44zM840.09 48.29 a5.73 5.73 0 1 0 11.46 0 a5.73 5.73 0 1 0 -11.46 0zM877.45 48.6L880.43 47.36L875.82 36.22L872.83 37.46zM868.6 36.84 a5.73 5.73 0 1 0 11.46 0 a5.73 5.73 0 1 0 -11.46 0zM900.96 43.27L904.2 43.27L904.2 20.91L900.96 20.91zM896.85 20.91 a5.73 5.73 0 1 0 11.46 0 a5.73 5.73 0 1 0 -11.46 0zM924.73 47.36L927.72 48.6L932.52 37.01L929.53 35.77zM925.29 36.39 a5.73 5.73 0 1 0 11.46 0 a5.73 5.73 0 1 0 -11.46 0zM945.12 60.22L947.41 62.51L961.86 48.06L959.58 45.77zM954.99 46.92 a5.73 5.73 0 1 0 11.46 0 a5.73 5.73 0 1 0 -11.46 0zM959.04 79.92L960.28 82.91L968.31 79.58L967.07 76.59zM961.96 78.09 a5.73 5.73 0 1 0 11.46 0 a5.73 5.73 0 1 0 -11.46 0zM840.78 105.05 a61.8 61.8 0 1 0 123.6 0 a61.8 61.8 0 1 0 -123.6 0z" fill="rgba(225, 231, 238, 1)"></path>
        <path d="M964.29 108.43 A60.8 60.8 0 0 1 868.91 156.88M868.91 156.88 A123.6 123.6 0 0 0 964.29 108.43" fill="#a6b8cd" fill-rule="nonzero"></path>
        <path d="M915.35 61.67 a11.74 11.74 0 1 0 23.48 0 a11.74 11.74 0 1 0 -23.48 0zM899.27 78.27 a4.33 4.33 0 1 0 8.66 0 a4.33 4.33 0 1 0 -8.66 0zM903.68 151.88 a12.36 12.36 0 1 0 24.72 0 a12.36 12.36 0 1 0 -24.72 0zM898.82 101.97 a6.8 6.8 0 1 0 13.6 0 a6.8 6.8 0 1 0 -13.6 0zM849.22 76.17 a6.18 6.18 0 1 0 12.36 0 a6.18 6.18 0 1 0 -12.36 0zM856.74 145 a3.71 3.71 0 1 0 7.42 0 a3.71 3.71 0 1 0 -7.42 0zM930.15 104.39 a12.36 12.36 0 1 0 24.72 0 a12.36 12.36 0 1 0 -24.72 0zM869.59 119.73 a11.12 11.12 0 1 0 22.24 0 a11.12 11.12 0 1 0 -22.24 0zM934.24 134.05 a2.47 2.47 0 1 0 4.94 0 a2.47 2.47 0 1 0 -4.94 0zM880.79 147.39 a4.33 4.33 0 1 0 8.66 0 a4.33 4.33 0 1 0 -8.66 0z" fill="#a6b8cd" fill-rule="nonzero"></path>
    </g>
    <defs>
        <mask id="SvgjsMask1038">
            <rect width="2000" height="2000" fill="#ffffff"></rect>
        </mask>
    </defs>
</svg>

